<?xml version="1.0" encoding="UTF-8" standalone="no"?>
<!-- Created with Inkscape (http://www.inkscape.org/) -->

<svg
   xmlns:dc="http://purl.org/dc/elements/1.1/"
   xmlns:cc="http://creativecommons.org/ns#"
   xmlns:rdf="http://www.w3.org/1999/02/22-rdf-syntax-ns#"
   xmlns:svg="http://www.w3.org/2000/svg"
   xmlns="http://www.w3.org/2000/svg"
   xmlns:sodipodi="http://sodipodi.sourceforge.net/DTD/sodipodi-0.dtd"
   xmlns:inkscape="http://www.inkscape.org/namespaces/inkscape"
   width="744.09448819"
   height="1052.3622047"
   id="svg2"
   version="1.1"
   inkscape:version="0.48.4 r9939"
   sodipodi:docname="logo.svg"
   inkscape:export-filename="/home/data/devel/projects/microntek-car/MTC-Service/img/logo-512.png"
   inkscape:export-xdpi="200.07381"
   inkscape:export-ydpi="200.07381">
  <defs
     id="defs4" />
  <sodipodi:namedview
     id="base"
     pagecolor="#ffffff"
     bordercolor="#666666"
     borderopacity="1.0"
     inkscape:pageopacity="0.0"
     inkscape:pageshadow="2"
     inkscape:zoom="2.8"
     inkscape:cx="157.36212"
     inkscape:cy="904.73925"
     inkscape:document-units="px"
     inkscape:current-layer="layer2"
     showgrid="true"
     inkscape:window-width="1424"
     inkscape:window-height="971"
     inkscape:window-x="0"
     inkscape:window-y="0"
     inkscape:window-maximized="0">
    <inkscape:grid
       type="xygrid"
       id="grid2985"
       units="mm"
       empspacing="5"
       visible="true"
       enabled="true"
       snapvisiblegridlinesonly="true"
       spacingx="0.5mm"
       spacingy="0.5mm" />
  </sodipodi:namedview>
  <metadata
     id="metadata7">
    <rdf:RDF>
      <cc:Work
         rdf:about="">
        <dc:format>image/svg+xml</dc:format>
        <dc:type
           rdf:resource="http://purl.org/dc/dcmitype/StillImage" />
        <dc:title />
      </cc:Work>
    </rdf:RDF>
  </metadata>
  <g
     inkscape:groupmode="layer"
     id="layer2"
     inkscape:label="bg">
    <rect
       style="fill:none;fill-opacity:1;fill-rule:nonzero;stroke:none;stroke-width:1.77199996000000004;stroke-linecap:butt;stroke-linejoin:round;stroke-miterlimit:4;stroke-opacity:1;stroke-dasharray:none;stroke-dashoffset:0"
       id="rect3760"
       width="230.31496"
       height="230.31496"
       x="35.433071"
       y="24.803127"
       ry="8.8582668" />
  </g>
  <g
     inkscape:label="Layer 1"
     inkscape:groupmode="layer"
     id="layer1">
    <rect
       style="fill:#ffffff;fill-opacity:1;stroke:#000000;stroke-width:1.77199996;stroke-linecap:butt;stroke-linejoin:round;stroke-miterlimit:4;stroke-opacity:1;stroke-dasharray:none;stroke-dashoffset:0"
       id="rect2987"
       width="212.59842"
       height="212.59842"
       x="44.29134"
       y="33.661396"
       ry="8.8582668" />
    <path
       sodipodi:type="arc"
       style="fill:none;stroke:#000000;stroke-width:2;stroke-linecap:butt;stroke-linejoin:miter;stroke-miterlimit:4;stroke-opacity:1;stroke-dasharray:none;stroke-dashoffset:0"
       id="path3757"
       sodipodi:cx="150.59055"
       sodipodi:cy="139.9606"
       sodipodi:rx="97.440948"
       sodipodi:ry="97.440948"
       d="m 248.03149,139.9606 a 97.440948,97.440948 0 1 1 -194.881893,0 97.440948,97.440948 0 1 1 194.881893,0 z" />
    <path
       sodipodi:type="arc"
       style="fill:none;stroke:#000000;stroke-width:1;stroke-linecap:butt;stroke-linejoin:miter;stroke-miterlimit:4;stroke-opacity:1;stroke-dasharray:none;stroke-dashoffset:0"
       id="path3759"
       sodipodi:cx="150.59055"
       sodipodi:cy="139.9606"
       sodipodi:rx="79.724403"
       sodipodi:ry="79.724403"
       d="m 230.31495,139.9606 a 79.724403,79.724403 0 1 1 -159.448808,0 79.724403,79.724403 0 1 1 159.448808,0 z" />
    <path
       style="fill:none;stroke:#000000;stroke-width:1px;stroke-linecap:butt;stroke-linejoin:miter;stroke-opacity:1"
       d="m 63.779528,113.3858 c 88.582672,35.43308 173.622042,0 173.622042,0"
       id="path3761"
       inkscape:connector-curvature="0"
       sodipodi:nodetypes="cc" />
    <path
       style="fill:none;stroke:#000000;stroke-width:1px;stroke-linecap:butt;stroke-linejoin:miter;stroke-opacity:1"
       d="m 60.23622,131.10234 c 63.77953,17.71654 81.49606,99.2126 81.49606,99.2126"
       id="path3765"
       inkscape:connector-curvature="0"
       sodipodi:nodetypes="cc" />
    <path
       style="fill:none;stroke:#000000;stroke-width:1px;stroke-linecap:butt;stroke-linejoin:miter;stroke-opacity:1"
       d="m 240.89824,131.30047 c -63.77953,17.71654 -81.49606,99.2126 -81.49606,99.2126"
       id="path3765-7"
       inkscape:connector-curvature="0"
       sodipodi:nodetypes="cc" />
    <path
       style="fill:none;stroke:#000000;stroke-width:1px;stroke-linecap:butt;stroke-linejoin:miter;stroke-opacity:1"
       d="m 150.59055,134.64565 -17.71653,40.74803 17.71653,-8.85827 17.71654,8.85827 z"
       id="path3785"
       inkscape:connector-curvature="0"
       sodipodi:nodetypes="ccccc" />
    <path
       style="fill:#000000;fill-opacity:1;fill-rule:nonzero;stroke:#000000;stroke-width:1;stroke-linecap:butt;stroke-linejoin:miter;stroke-miterlimit:4;stroke-opacity:1;stroke-dasharray:none;stroke-dashoffset:0"
       d="m 144.28447,218.4303 c -1.31951,-0.12909 -3.08023,-0.32119 -3.91272,-0.42689 l -1.51361,-0.19218 -0.94946,-2.65079 c -7.41656,-20.7062 -16.66097,-37.51872 -28.46556,-51.76946 -3.1045,-3.74782 -10.776612,-11.48644 -14.151045,-14.27373 -6.64035,-5.48494 -13.75454,-10.06839 -20.606055,-13.27584 -1.445099,-0.6765 -2.627453,-1.31813 -2.627453,-1.42584 0,-0.92228 0.863656,-7.29952 1.274427,-9.41039 0.478818,-2.46054 1.480399,-6.57629 1.650322,-6.7816 0.04067,-0.0491 1.473209,0.37154 3.183419,0.93485 16.219778,5.34241 34.474225,8.69862 55.384865,10.18288 5.4568,0.38734 23.30331,0.3836 29.4207,-0.006 20.14284,-1.28336 39.18687,-4.50085 57.69842,-9.74815 2.68349,-0.76066 5.01593,-1.41533 5.1832,-1.45482 0.39575,-0.0934 0.83431,1.36606 1.76173,5.86285 0.61136,2.96428 1.52164,9.24567 1.52164,10.50004 0,0.15144 -1.05119,0.76689 -2.33598,1.36767 -19.96858,9.33752 -37.2261,26.51377 -50.49449,50.25667 -4.75076,8.50118 -9.16493,18.35211 -13.01357,29.04189 l -0.95467,2.65165 -2.39793,0.30352 c -3.25937,0.41256 -12.71048,0.60201 -15.65618,0.31383 l 0,0 z m -2.90621,-46.51399 9.21743,-4.60665 9.33281,4.66096 c 5.13305,2.56352 9.3789,4.60811 9.43521,4.54352 0.12838,-0.14725 -18.57995,-43.1752 -18.77235,-43.1752 -0.0774,0 -4.10404,9.11979 -8.94798,20.26619 -4.84393,11.1464 -9.07092,20.86281 -9.3933,21.59201 -0.32238,0.7292 -0.47434,1.32582 -0.3377,1.32582 0.13665,0 4.39629,-2.07299 9.46588,-4.60665 l 0,0 z"
       id="path3790"
       inkscape:connector-curvature="0" />
    <path
       style="fill:#000000;fill-opacity:1;fill-rule:nonzero;stroke:#000000;stroke-width:0.44749758000000001;stroke-linecap:butt;stroke-linejoin:miter;stroke-miterlimit:4;stroke-opacity:1;stroke-dasharray:none;stroke-dashoffset:0"
       d="M 141.75909,235.96703 C 118.86058,233.80142 98.072545,223.89998 81.85489,207.43435 54.077407,179.23215 46.391812,136.80616 62.533813,100.77823 78.848488,64.36491 115.53047,41.770972 155.1854,43.710325 c 13.76634,0.673252 25.55742,3.728974 37.9652,9.838888 10.21629,5.030762 19.02294,11.425634 26.64278,19.346422 21.62671,22.480859 31.02051,53.030745 25.74441,83.724245 -5.21902,30.36136 -25.39341,56.9369 -53.3585,70.28865 -15.71526,7.50315 -33.35541,10.67238 -50.4202,9.0585 z m 19.31288,-9.20099 c 0.58193,-2.14628 1.27458,-4.60575 1.53923,-5.46549 l 0.48119,-1.56316 2.27593,-0.41203 c 9.20279,-1.66603 18.66595,-5.26798 26.98938,-10.27289 20.0935,-12.08234 34.12626,-32.8297 37.88687,-56.01555 0.69558,-4.28857 0.95643,-7.6102 0.99824,-12.71162 l 0.0411,-5.0092 0.88389,-0.37655 c 0.48613,-0.2071 2.58851,-0.94148 4.67195,-1.63195 2.08344,-0.69047 3.9213,-1.29986 4.08414,-1.35419 0.39919,-0.13321 0.11438,-1.13985 -0.3225,-1.13985 -0.4718,0 -4.82966,1.39753 -7.26383,2.32944 -1.4653,0.56099 -2.03606,0.68125 -2.17401,0.45805 -0.10288,-0.16647 -0.25992,-1.23109 -0.34899,-2.36583 -0.21139,-2.6932 -0.94972,-6.92647 -1.83766,-10.53632 -0.39113,-1.59008 -0.71391,-2.9853 -0.71729,-3.1005 -0.003,-0.1152 2.03367,-0.93906 4.52679,-1.83079 2.49312,-0.89174 4.62764,-1.71603 4.74337,-1.83176 0.11573,-0.11573 0.13381,-0.41007 0.0402,-0.65408 -0.21493,-0.56008 -0.24371,-0.55299 -5.49803,1.35519 -2.34452,0.85145 -4.28952,1.51547 -4.32224,1.4756 -0.0327,-0.0399 -0.26021,-0.69751 -0.50554,-1.46144 -5.31908,-16.562455 -16.62134,-31.506333 -31.44515,-41.576867 -9.99726,-6.791625 -20.96907,-11.042822 -33.58426,-13.012746 -3.23046,-0.504453 -4.59885,-0.571809 -11.61675,-0.571809 -8.58081,0 -11.5749,0.293869 -17.98998,1.765712 -26.86002,6.162621 -48.895602,25.719633 -58.028785,51.50168 -0.59044,1.66675 -1.158753,3.12533 -1.262918,3.24129 -0.104165,0.11597 -2.174462,-0.53747 -4.600661,-1.45209 -2.426198,-0.91461 -4.529501,-1.66294 -4.674005,-1.66294 -0.303975,0 -0.627506,0.71169 -0.452361,0.99508 0.06522,0.10553 2.208738,0.96189 4.763364,1.903 l 4.644774,1.71112 -0.707981,2.8093 c -0.79973,3.17336 -1.622473,7.75274 -1.865879,10.38544 -0.08989,0.97227 -0.219654,2.06791 -0.288364,2.43476 l -0.124926,0.66698 -1.819531,-0.70064 c -1.000743,-0.38535 -3.16316,-1.13135 -4.805373,-1.65778 -2.497181,-0.80049 -3.023073,-0.89831 -3.213337,-0.59769 -0.125123,0.1977 -0.229213,0.47309 -0.231311,0.61199 -0.0021,0.13889 1.217815,0.63245 2.710918,1.09679 1.493103,0.46433 3.779138,1.25149 5.08008,1.74924 l 2.365347,0.90499 -0.169722,2.41764 c -0.210614,3.00012 0.222131,10.20694 0.867388,14.44527 4.951376,32.52277 28.829107,58.57393 60.827893,66.36465 1.61656,0.39358 3.73637,0.84914 4.7107,1.01235 l 1.77151,0.29674 1.06002,3.58587 c 0.58301,1.97223 1.25674,4.40978 1.49718,5.41677 0.43166,1.80791 0.62621,2.0413 1.33016,1.59577 0.30389,-0.19234 0.24961,-0.6494 -0.35195,-2.96346 -0.39118,-1.50483 -1.03038,-3.75483 -1.42044,-5 -0.39005,-1.24517 -0.67265,-2.30049 -0.628,-2.34514 0.0447,-0.0447 1.1472,0.0603 2.4501,0.23317 3.08375,0.40924 14.02842,0.40924 17.11217,0 1.3029,-0.1729 2.40631,-0.27696 2.45204,-0.23123 0.0457,0.0457 -0.2019,0.98069 -0.55027,2.07772 -0.34837,1.09702 -1.01569,3.4438 -1.48294,5.21507 -0.76066,2.88353 -0.80561,3.23195 -0.42967,3.33014 0.23092,0.0603 0.52131,0.0897 0.64531,0.0654 0.12399,-0.0243 0.70157,-1.80033 1.28349,-3.94661 l 0,0 z"
       id="path3792"
       inkscape:connector-curvature="0" />
  </g>
</svg>
